<svg xmlns="http://www.w3.org/2000/svg" viewBox="0 0 64 64">
  <rect width="64" height="64" rx="16" fill="#dcdcdc"/>
  <rect x="3" y="3" width="58" height="58" rx="14" fill="none" stroke="#a8a8a8" stroke-width="1.8"/>

  <g transform="translate(8 11) rotate(-12 14 17)">
    <rect x="5" y="4" width="22" height="32" rx="4.6" fill="#c4ccd8" stroke="#476284" stroke-width="2.1"/>
    <circle cx="16" cy="20" r="8.1" fill="#fff" stroke="#476284" stroke-width="2"/>
    <path d="M7.9 20a8.1 8.1 0 0 1 16.2 0" fill="#e36a5c"/>
    <path d="M7.9 20h16.2" stroke="#476284" stroke-width="2"/>
    <circle cx="16" cy="20" r="2.35" fill="#fff" stroke="#476284" stroke-width="1.5"/>
  </g>

  <g transform="translate(22 13) rotate(12 14 17)">
    <rect x="5" y="4" width="22" height="32" rx="4.6" fill="#55a7e1" stroke="#3d6288" stroke-width="2.1"/>
    <circle cx="16" cy="20" r="8.1" fill="#fff" stroke="#3d6288" stroke-width="2"/>
    <path d="M7.9 20a8.1 8.1 0 0 1 16.2 0" fill="#e36a5c"/>
    <path d="M7.9 20h16.2" stroke="#3d6288" stroke-width="2"/>
    <circle cx="16" cy="20" r="2.35" fill="#fff" stroke="#3d6288" stroke-width="1.5"/>
  </g>
</svg>
